solid
 facet normal 0.433710 -1.377276 -0.596951
  outer loop
   vertex -5.46035448 -4.960147381 -3.001484359 
   vertex -6.266179445 -4.960147381 -3.586950446 
   vertex -4.284132513 -4.219353199 -3.856059814 
  endloop
 endfacet
 facet normal 0.824965 -2.619735 -1.135467
  outer loop
   vertex -4.284132513 -4.219353199 -3.856059814 
   vertex -6.266179445 -4.960147381 -3.586950446 
   vertex -5.816902789 -4.219353199 -4.96968236 
  endloop
 endfacet
 facet normal -0.000000 -1.377276 -0.737872
  outer loop
   vertex -6.266179445 -4.960147381 -3.586950446 
   vertex -7.262233796 -4.960147381 -3.586950207 
   vertex -5.816902789 -4.219353199 -4.96968236 
  endloop
 endfacet
 facet normal 0.000000 -2.619735 -1.403515
  outer loop
   vertex -5.816902789 -4.219353199 -4.96968236 
   vertex -7.262233796 -4.960147381 -3.586950207 
   vertex -7.71151075 -4.219353199 -4.969681883 
  endloop
 endfacet
 facet normal -0.433710 -1.377276 -0.596951
  outer loop
   vertex -7.262233796 -4.960147381 -3.586950207 
   vertex -8.068058642 -4.960147381 -3.00148412 
   vertex -7.71151075 -4.219353199 -4.969681883 
  endloop
 endfacet
 facet normal -0.824965 -2.619734 -1.135468
  outer loop
   vertex -7.71151075 -4.219353199 -4.969681883 
   vertex -8.068058642 -4.960147381 -3.00148412 
   vertex -9.244280609 -4.219353199 -3.856059218 
  endloop
 endfacet
 facet normal -0.701757 -1.377276 -0.228014
  outer loop
   vertex -8.068058642 -4.960147381 -3.00148412 
   vertex -8.375856193 -4.960147381 -2.054180193 
   vertex -9.244280609 -4.219353199 -3.856059218 
  endloop
 endfacet
 facet normal -1.334822 -2.619735 -0.433710
  outer loop
   vertex -9.244280609 -4.219353199 -3.856059218 
   vertex -8.375856193 -4.960147381 -2.054180193 
   vertex -9.829746517 -4.219353199 -2.054180106 
  endloop
 endfacet
 facet normal -0.701757 -1.377276 0.228015
  outer loop
   vertex -8.375856193 -4.960147381 -2.054180193 
   vertex -8.068058404 -4.960147381 -1.106876278 
   vertex -9.829746517 -4.219353199 -2.054180106 
  endloop
 endfacet
 facet normal -1.334821 -2.619735 0.433710
  outer loop
   vertex -9.829746517 -4.219353199 -2.054180106 
   vertex -8.068058404 -4.960147381 -1.106876278 
   vertex -9.24428037 -4.219353199 -0.252301002 
  endloop
 endfacet
 facet normal -0.433710 -1.377276 0.596951
  outer loop
   vertex -8.068058404 -4.960147381 -1.106876278 
   vertex -7.262233498 -4.960147381 -0.5214103704 
   vertex -9.24428037 -4.219353199 -0.252301002 
  endloop
 endfacet
 facet normal -0.824965 -2.619734 1.135468
  outer loop
   vertex -9.24428037 -4.219353199 -0.252301002 
   vertex -7.262233498 -4.960147381 -0.5214103704 
   vertex -7.711510214 -4.219353199 0.8613213057 
  endloop
 endfacet
 facet normal 0.000000 -1.377276 0.737872
  outer loop
   vertex -7.262233498 -4.960147381 -0.5214103704 
   vertex -6.266179296 -4.960147381 -0.5214104896 
   vertex -7.711510214 -4.219353199 0.8613213057 
  endloop
 endfacet
 facet normal 0.000000 -2.619734 1.403513
  outer loop
   vertex -7.711510214 -4.219353199 0.8613213057 
   vertex -6.266179296 -4.960147381 -0.5214104896 
   vertex -5.816902491 -4.219353199 0.8613213057 
  endloop
 endfacet
 facet normal 0.433710 -1.377276 0.596950
  outer loop
   vertex -6.266179296 -4.960147381 -0.5214104896 
   vertex -5.460354599 -4.960147381 -1.106876457 
   vertex -5.816902491 -4.219353199 0.8613213057 
  endloop
 endfacet
 facet normal 0.824965 -2.619734 1.135468
  outer loop
   vertex -5.816902491 -4.219353199 0.8613213057 
   vertex -5.460354599 -4.960147381 -1.106876457 
   vertex -4.284132751 -4.219353199 -0.2523013597 
  endloop
 endfacet
 facet normal 0.701757 -1.377276 0.228015
  outer loop
   vertex -5.460354599 -4.960147381 -1.106876457 
   vertex -5.152556928 -4.960147381 -2.054180289 
   vertex -4.284132751 -4.219353199 -0.2523013597 
  endloop
 endfacet
 facet normal 1.334821 -2.619734 0.433709
  outer loop
   vertex -4.284132751 -4.219353199 -0.2523013597 
   vertex -5.152556928 -4.960147381 -2.054180289 
   vertex -3.698666843 -4.219353199 -2.054180289 
  endloop
 endfacet
 facet normal 0.701757 -1.377276 -0.228013
  outer loop
   vertex -5.152556928 -4.960147381 -2.054180289 
   vertex -5.46035448 -4.960147381 -3.001484359 
   vertex -3.698666843 -4.219353199 -2.054180289 
  endloop
 endfacet
 facet normal 1.334822 -2.619734 -0.433710
  outer loop
   vertex -3.698666843 -4.219353199 -2.054180289 
   vertex -5.46035448 -4.960147381 -3.001484359 
   vertex -4.284132513 -4.219353199 -3.856059814 
  endloop
 endfacet
 facet normal 1.284913 -2.079033 -1.768529
  outer loop
   vertex -4.284132513 -4.219353199 -3.856059814 
   vertex -5.816902789 -4.219353199 -4.96968236 
   vertex -3.350677761 -3.065539598 -4.534254694 
  endloop
 endfacet
 facet normal 1.768530 -2.861544 -2.434175
  outer loop
   vertex -3.350677761 -3.065539598 -4.534254694 
   vertex -5.816902789 -4.219353199 -4.96968236 
   vertex -5.460354837 -3.065539598 -6.067024374 
  endloop
 endfacet
 facet normal -0.000000 -2.079033 -2.186025
  outer loop
   vertex -5.816902789 -4.219353199 -4.96968236 
   vertex -7.71151075 -4.219353199 -4.969681883 
   vertex -5.460354837 -3.065539598 -6.067024374 
  endloop
 endfacet
 facet normal -0.000000 -2.861543 -3.008804
  outer loop
   vertex -5.460354837 -3.065539598 -6.067024374 
   vertex -7.71151075 -4.219353199 -4.969681883 
   vertex -8.068059 -3.065539598 -6.067023898 
  endloop
 endfacet
 facet normal -1.284913 -2.079033 -1.768531
  outer loop
   vertex -7.71151075 -4.219353199 -4.969681883 
   vertex -9.244280609 -4.219353199 -3.856059218 
   vertex -8.068059 -3.065539598 -6.067023898 
  endloop
 endfacet
 facet normal -1.768531 -2.861543 -2.434175
  outer loop
   vertex -8.068059 -3.065539598 -6.067023898 
   vertex -9.244280609 -4.219353199 -3.856059218 
   vertex -10.1777356 -3.065539598 -4.534253741 
  endloop
 endfacet
 facet normal -2.079033 -2.079033 -0.675519
  outer loop
   vertex -9.244280609 -4.219353199 -3.856059218 
   vertex -9.829746517 -4.219353199 -2.054180106 
   vertex -10.1777356 -3.065539598 -4.534253741 
  endloop
 endfacet
 facet normal -2.861543 -2.861544 -0.929771
  outer loop
   vertex -10.1777356 -3.065539598 -4.534253741 
   vertex -9.829746517 -4.219353199 -2.054180106 
   vertex -10.98356012 -3.065539598 -2.054180037 
  endloop
 endfacet
 facet normal -2.079033 -2.079032 0.675519
  outer loop
   vertex -9.829746517 -4.219353199 -2.054180106 
   vertex -9.24428037 -4.219353199 -0.252301002 
   vertex -10.98356012 -3.065539598 -2.054180037 
  endloop
 endfacet
 facet normal -2.861543 -2.861544 0.929772
  outer loop
   vertex -10.98356012 -3.065539598 -2.054180037 
   vertex -9.24428037 -4.219353199 -0.252301002 
   vertex -10.17773512 -3.065539598 0.4258938784 
  endloop
 endfacet
 facet normal -1.284912 -2.079033 1.768530
  outer loop
   vertex -9.24428037 -4.219353199 -0.252301002 
   vertex -7.711510214 -4.219353199 0.8613213057 
   vertex -10.17773512 -3.065539598 0.4258938784 
  endloop
 endfacet
 facet normal -1.768531 -2.861543 2.434175
  outer loop
   vertex -10.17773512 -3.065539598 0.4258938784 
   vertex -7.711510214 -4.219353199 0.8613213057 
   vertex -8.068058165 -3.065539598 1.95866332 
  endloop
 endfacet
 facet normal 0.000000 -2.079032 2.186025
  outer loop
   vertex -7.711510214 -4.219353199 0.8613213057 
   vertex -5.816902491 -4.219353199 0.8613213057 
   vertex -8.068058165 -3.065539598 1.95866332 
  endloop
 endfacet
 facet normal 0.000000 -2.861543 3.008803
  outer loop
   vertex -8.068058165 -3.065539598 1.95866332 
   vertex -5.816902491 -4.219353199 0.8613213057 
   vertex -5.46035448 -3.065539598 1.95866332 
  endloop
 endfacet
 facet normal 1.284913 -2.079032 1.768530
  outer loop
   vertex -5.816902491 -4.219353199 0.8613213057 
   vertex -4.284132751 -4.219353199 -0.2523013597 
   vertex -5.46035448 -3.065539598 1.95866332 
  endloop
 endfacet
 facet normal 1.768531 -2.861543 2.434174
  outer loop
   vertex -5.46035448 -3.065539598 1.95866332 
   vertex -4.284132751 -4.219353199 -0.2523013597 
   vertex -3.350677999 -3.065539598 0.4258931632 
  endloop
 endfacet
 facet normal 2.079033 -2.079031 0.675519
  outer loop
   vertex -4.284132751 -4.219353199 -0.2523013597 
   vertex -3.698666843 -4.219353199 -2.054180289 
   vertex -3.350677999 -3.065539598 0.4258931632 
  endloop
 endfacet
 facet normal 2.861542 -2.861544 0.929771
  outer loop
   vertex -3.350677999 -3.065539598 0.4258931632 
   vertex -3.698666843 -4.219353199 -2.054180289 
   vertex -2.544853243 -3.065539598 -2.054180289 
  endloop
 endfacet
 facet normal 2.079033 -2.079034 -0.675518
  outer loop
   vertex -3.698666843 -4.219353199 -2.054180289 
   vertex -4.284132513 -4.219353199 -3.856059814 
   vertex -2.544853243 -3.065539598 -2.054180289 
  endloop
 endfacet
 facet normal 2.861543 -2.861544 -0.929771
  outer loop
   vertex -2.544853243 -3.065539598 -2.054180289 
   vertex -4.284132513 -4.219353199 -3.856059814 
   vertex -3.350677761 -3.065539598 -4.534254694 
  endloop
 endfacet
 facet normal 2.228479 -1.837224 -3.067239
  outer loop
   vertex -3.350677761 -3.065539598 -4.534254694 
   vertex -5.460354837 -3.065539598 -6.067024374 
   vertex -2.751362356 -1.611649394 -4.969682599 
  endloop
 endfacet
 facet normal 2.619734 -2.159788 -3.605756
  outer loop
   vertex -2.751362356 -1.611649394 -4.969682599 
   vertex -5.460354837 -3.065539598 -6.067024374 
   vertex -5.231436881 -1.611649394 -6.771561766 
  endloop
 endfacet
 facet normal -0.000001 -1.837225 -3.791316
  outer loop
   vertex -5.460354837 -3.065539598 -6.067024374 
   vertex -8.068059 -3.065539598 -6.067023898 
   vertex -5.231436881 -1.611649394 -6.771561766 
  endloop
 endfacet
 facet normal 0.000000 -2.159788 -4.456959
  outer loop
   vertex -5.231436881 -1.611649394 -6.771561766 
   vertex -8.068059 -3.065539598 -6.067023898 
   vertex -8.296977075 -1.611649394 -6.771561289 
  endloop
 endfacet
 facet normal -2.228479 -1.837224 -3.067238
  outer loop
   vertex -8.068059 -3.065539598 -6.067023898 
   vertex -10.1777356 -3.065539598 -4.534253741 
   vertex -8.296977075 -1.611649394 -6.771561289 
  endloop
 endfacet
 facet normal -2.619736 -2.159788 -3.605755
  outer loop
   vertex -8.296977075 -1.611649394 -6.771561289 
   vertex -10.1777356 -3.065539598 -4.534253741 
   vertex -10.777051 -1.611649394 -4.969681645 
  endloop
 endfacet
 facet normal -3.605754 -1.837225 -1.171581
  outer loop
   vertex -10.1777356 -3.065539598 -4.534253741 
   vertex -10.98356012 -3.065539598 -2.054180037 
   vertex -10.777051 -1.611649394 -4.969681645 
  endloop
 endfacet
 facet normal -4.238820 -2.159784 -1.377275
  outer loop
   vertex -10.777051 -1.611649394 -4.969681645 
   vertex -10.98356012 -3.065539598 -2.054180037 
   vertex -11.7243543 -1.611649394 -2.054179993 
  endloop
 endfacet
 facet normal -3.605755 -1.837223 1.171581
  outer loop
   vertex -10.98356012 -3.065539598 -2.054180037 
   vertex -10.17773512 -3.065539598 0.4258938784 
   vertex -11.7243543 -1.611649394 -2.054179993 
  endloop
 endfacet
 facet normal -4.238820 -2.159788 1.377275
  outer loop
   vertex -11.7243543 -1.611649394 -2.054179993 
   vertex -10.17773512 -3.065539598 0.4258938784 
   vertex -10.77705053 -1.611649394 0.8613217826 
  endloop
 endfacet
 facet normal -2.228478 -1.837224 3.067238
  outer loop
   vertex -10.17773512 -3.065539598 0.4258938784 
   vertex -8.068058165 -3.065539598 1.95866332 
   vertex -10.77705053 -1.611649394 0.8613217826 
  endloop
 endfacet
 facet normal -2.619734 -2.159788 3.605756
  outer loop
   vertex -10.77705053 -1.611649394 0.8613217826 
   vertex -8.068058165 -3.065539598 1.95866332 
   vertex -8.296976122 -1.611649394 2.663200712 
  endloop
 endfacet
 facet normal 0.000000 -1.837225 3.791315
  outer loop
   vertex -8.068058165 -3.065539598 1.95866332 
   vertex -5.46035448 -3.065539598 1.95866332 
   vertex -8.296976122 -1.611649394 2.663200712 
  endloop
 endfacet
 facet normal 0.000000 -2.159786 4.456958
  outer loop
   vertex -8.296976122 -1.611649394 2.663200712 
   vertex -5.46035448 -3.065539598 1.95866332 
   vertex -5.231436404 -1.611649394 2.663200235 
  endloop
 endfacet
 facet normal 2.228480 -1.837224 3.067238
  outer loop
   vertex -5.46035448 -3.065539598 1.95866332 
   vertex -3.350677999 -3.065539598 0.4258931632 
   vertex -5.231436404 -1.611649394 2.663200235 
  endloop
 endfacet
 facet normal 2.619735 -2.159787 3.605755
  outer loop
   vertex -5.231436404 -1.611649394 2.663200235 
   vertex -3.350677999 -3.065539598 0.4258931632 
   vertex -2.751362833 -1.611649394 0.8613210673 
  endloop
 endfacet
 facet normal 3.605754 -1.837224 1.171581
  outer loop
   vertex -3.350677999 -3.065539598 0.4258931632 
   vertex -2.544853243 -3.065539598 -2.054180289 
   vertex -2.751362833 -1.611649394 0.8613210673 
  endloop
 endfacet
 facet normal 4.238819 -2.159786 1.377275
  outer loop
   vertex -2.751362833 -1.611649394 0.8613210673 
   vertex -2.544853243 -3.065539598 -2.054180289 
   vertex -1.804059061 -1.611649394 -2.054180289 
  endloop
 endfacet
 facet normal 3.605756 -1.837225 -1.171581
  outer loop
   vertex -2.544853243 -3.065539598 -2.054180289 
   vertex -3.350677761 -3.065539598 -4.534254694 
   vertex -1.804059061 -1.611649394 -2.054180289 
  endloop
 endfacet
 facet normal 4.238820 -2.159788 -1.377275
  outer loop
   vertex -1.804059061 -1.611649394 -2.054180289 
   vertex -3.350677761 -3.065539598 -4.534254694 
   vertex -2.751362356 -1.611649394 -4.969682599 
  endloop
 endfacet
 facet normal 2.903997 -0.744211 -3.997010
  outer loop
   vertex -2.751362356 -1.611649394 -4.969682599 
   vertex -5.231436881 -1.611649394 -6.771561766 
   vertex -2.544852766 0 -5.119720603 
  endloop
 endfacet
 facet normal 3.053444 -0.782510 -4.202705
  outer loop
   vertex -2.544852766 0 -5.119720603 
   vertex -5.231436881 -1.611649394 -6.771561766 
   vertex -5.152557167 0 -7.014328623 
  endloop
 endfacet
 facet normal -0.000001 -0.744211 -4.940576
  outer loop
   vertex -5.231436881 -1.611649394 -6.771561766 
   vertex -8.296977075 -1.611649394 -6.771561289 
   vertex -5.152557167 0 -7.014328623 
  endloop
 endfacet
 facet normal -0.000002 -0.782509 -5.194829
  outer loop
   vertex -5.152557167 0 -7.014328623 
   vertex -8.296977075 -1.611649394 -6.771561289 
   vertex -8.375856789 0 -7.01432767 
  endloop
 endfacet
 facet normal -2.903998 -0.744211 -3.997010
  outer loop
   vertex -8.296977075 -1.611649394 -6.771561289 
   vertex -10.777051 -1.611649394 -4.969681645 
   vertex -8.375856789 0 -7.01432767 
  endloop
 endfacet
 facet normal -3.053443 -0.782510 -4.202704
  outer loop
   vertex -8.375856789 0 -7.01432767 
   vertex -10.777051 -1.611649394 -4.969681645 
   vertex -10.98356059 0 -5.119719887 
  endloop
 endfacet
 facet normal -4.698767 -0.744214 -1.526721
  outer loop
   vertex -10.777051 -1.611649394 -4.969681645 
   vertex -11.7243543 -1.611649394 -2.054179993 
   vertex -10.98356059 0 -5.119719887 
  endloop
 endfacet
 facet normal -4.940576 -0.782507 -1.605289
  outer loop
   vertex -10.98356059 0 -5.119719887 
   vertex -11.7243543 -1.611649394 -2.054179993 
   vertex -11.97961429 0 -2.054179978 
  endloop
 endfacet
 facet normal -4.698767 -0.744213 1.526722
  outer loop
   vertex -11.7243543 -1.611649394 -2.054179993 
   vertex -10.77705053 -1.611649394 0.8613217826 
   vertex -11.97961429 0 -2.054179978 
  endloop
 endfacet
 facet normal -4.940575 -0.782507 1.605290
  outer loop
   vertex -11.97961429 0 -2.054179978 
   vertex -10.77705053 -1.611649394 0.8613217826 
   vertex -10.98356012 0 1.011359786 
  endloop
 endfacet
 facet normal -2.903997 -0.744211 3.997010
  outer loop
   vertex -10.77705053 -1.611649394 0.8613217826 
   vertex -8.296976122 -1.611649394 2.663200712 
   vertex -10.98356012 0 1.011359786 
  endloop
 endfacet
 facet normal -3.053443 -0.782510 4.202705
  outer loop
   vertex -10.98356012 0 1.011359786 
   vertex -8.296976122 -1.611649394 2.663200712 
   vertex -8.375855836 0 2.905967092 
  endloop
 endfacet
 facet normal 0.000000 -0.744210 4.940576
  outer loop
   vertex -8.296976122 -1.611649394 2.663200712 
   vertex -5.231436404 -1.611649394 2.663200235 
   vertex -8.375855836 0 2.905967092 
  endloop
 endfacet
 facet normal 0.000000 -0.782510 5.194828
  outer loop
   vertex -8.375855836 0 2.905967092 
   vertex -5.231436404 -1.611649394 2.663200235 
   vertex -5.15255669 0 2.905967092 
  endloop
 endfacet
 facet normal 2.903998 -0.744211 3.997009
  outer loop
   vertex -5.231436404 -1.611649394 2.663200235 
   vertex -2.751362833 -1.611649394 0.8613210673 
   vertex -5.15255669 0 2.905967092 
  endloop
 endfacet
 facet normal 3.053443 -0.782511 4.202703
  outer loop
   vertex -5.15255669 0 2.905967092 
   vertex -2.751362833 -1.611649394 0.8613210673 
   vertex -2.544853243 0 1.01135931 
  endloop
 endfacet
 facet normal 4.698766 -0.744212 1.526722
  outer loop
   vertex -2.751362833 -1.611649394 0.8613210673 
   vertex -1.804059061 -1.611649394 -2.054180289 
   vertex -2.544853243 0 1.01135931 
  endloop
 endfacet
 facet normal 4.940575 -0.782511 1.605290
  outer loop
   vertex -2.544853243 0 1.01135931 
   vertex -1.804059061 -1.611649394 -2.054180289 
   vertex -1.54879907 0 -2.054180289 
  endloop
 endfacet
 facet normal 4.698768 -0.744211 -1.526721
  outer loop
   vertex -1.804059061 -1.611649394 -2.054180289 
   vertex -2.751362356 -1.611649394 -4.969682599 
   vertex -1.54879907 0 -2.054180289 
  endloop
 endfacet
 facet normal 4.940577 -0.782509 -1.605289
  outer loop
   vertex -1.54879907 0 -2.054180289 
   vertex -2.751362356 -1.611649394 -4.969682599 
   vertex -2.544852766 0 -5.119720603 
  endloop
 endfacet
 facet normal 3.053443 0.782510 -4.202705
  outer loop
   vertex -2.544852766 0 -5.119720603 
   vertex -5.152557167 0 -7.014328623 
   vertex -2.751362356 1.611649394 -4.969682599 
  endloop
 endfacet
 facet normal 2.903998 0.744211 -3.997010
  outer loop
   vertex -2.751362356 1.611649394 -4.969682599 
   vertex -5.152557167 0 -7.014328623 
   vertex -5.231436881 1.611649394 -6.771561766 
  endloop
 endfacet
 facet normal -0.000003 0.782510 -5.194829
  outer loop
   vertex -5.152557167 0 -7.014328623 
   vertex -8.375856789 0 -7.01432767 
   vertex -5.231436881 1.611649394 -6.771561766 
  endloop
 endfacet
 facet normal 0.000000 0.744210 -4.940576
  outer loop
   vertex -5.231436881 1.611649394 -6.771561766 
   vertex -8.375856789 0 -7.01432767 
   vertex -8.296977075 1.611649394 -6.771561289 
  endloop
 endfacet
 facet normal -3.053443 0.782509 -4.202704
  outer loop
   vertex -8.375856789 0 -7.01432767 
   vertex -10.98356059 0 -5.119719887 
   vertex -8.296977075 1.611649394 -6.771561289 
  endloop
 endfacet
 facet normal -2.903998 0.744211 -3.997010
  outer loop
   vertex -8.296977075 1.611649394 -6.771561289 
   vertex -10.98356059 0 -5.119719887 
   vertex -10.777051 1.611649394 -4.969681645 
  endloop
 endfacet
 facet normal -4.940576 0.782508 -1.605289
  outer loop
   vertex -10.98356059 0 -5.119719887 
   vertex -11.97961429 0 -2.054179978 
   vertex -10.777051 1.611649394 -4.969681645 
  endloop
 endfacet
 facet normal -4.698767 0.744213 -1.526721
  outer loop
   vertex -10.777051 1.611649394 -4.969681645 
   vertex -11.97961429 0 -2.054179978 
   vertex -11.7243543 1.611649394 -2.054179993 
  endloop
 endfacet
 facet normal -4.940575 0.782509 1.605290
  outer loop
   vertex -11.97961429 0 -2.054179978 
   vertex -10.98356012 0 1.011359786 
   vertex -11.7243543 1.611649394 -2.054179993 
  endloop
 endfacet
 facet normal -4.698766 0.744211 1.526722
  outer loop
   vertex -11.7243543 1.611649394 -2.054179993 
   vertex -10.98356012 0 1.011359786 
   vertex -10.77705053 1.611649394 0.8613217826 
  endloop
 endfacet
 facet normal -3.053443 0.782510 4.202705
  outer loop
   vertex -10.98356012 0 1.011359786 
   vertex -8.375855836 0 2.905967092 
   vertex -10.77705053 1.611649394 0.8613217826 
  endloop
 endfacet
 facet normal -2.903997 0.744211 3.997011
  outer loop
   vertex -10.77705053 1.611649394 0.8613217826 
   vertex -8.375855836 0 2.905967092 
   vertex -8.296976122 1.611649394 2.663200712 
  endloop
 endfacet
 facet normal 0.000000 0.782509 5.194828
  outer loop
   vertex -8.375855836 0 2.905967092 
   vertex -5.15255669 0 2.905967092 
   vertex -8.296976122 1.611649394 2.663200712 
  endloop
 endfacet
 facet normal 0.000000 0.744211 4.940576
  outer loop
   vertex -8.296976122 1.611649394 2.663200712 
   vertex -5.15255669 0 2.905967092 
   vertex -5.231436404 1.611649394 2.663200235 
  endloop
 endfacet
 facet normal 3.053445 0.782511 4.202704
  outer loop
   vertex -5.15255669 0 2.905967092 
   vertex -2.544853243 0 1.01135931 
   vertex -5.231436404 1.611649394 2.663200235 
  endloop
 endfacet
 facet normal 2.903996 0.744211 3.997009
  outer loop
   vertex -5.231436404 1.611649394 2.663200235 
   vertex -2.544853243 0 1.01135931 
   vertex -2.751362833 1.611649394 0.8613210673 
  endloop
 endfacet
 facet normal 4.940575 0.782512 1.605290
  outer loop
   vertex -2.544853243 0 1.01135931 
   vertex -1.54879907 0 -2.054180289 
   vertex -2.751362833 1.611649394 0.8613210673 
  endloop
 endfacet
 facet normal 4.698766 0.744211 1.526722
  outer loop
   vertex -2.751362833 1.611649394 0.8613210673 
   vertex -1.54879907 0 -2.054180289 
   vertex -1.804059061 1.611649394 -2.054180289 
  endloop
 endfacet
 facet normal 4.940576 0.782511 -1.605289
  outer loop
   vertex -1.54879907 0 -2.054180289 
   vertex -2.544852766 0 -5.119720603 
   vertex -1.804059061 1.611649394 -2.054180289 
  endloop
 endfacet
 facet normal 4.698768 0.744209 -1.526721
  outer loop
   vertex -1.804059061 1.611649394 -2.054180289 
   vertex -2.544852766 0 -5.119720603 
   vertex -2.751362356 1.611649394 -4.969682599 
  endloop
 endfacet
 facet normal 2.619735 2.159788 -3.605756
  outer loop
   vertex -2.751362356 1.611649394 -4.969682599 
   vertex -5.231436881 1.611649394 -6.771561766 
   vertex -3.350677761 3.065539598 -4.534254694 
  endloop
 endfacet
 facet normal 2.228478 1.837224 -3.067240
  outer loop
   vertex -3.350677761 3.065539598 -4.534254694 
   vertex -5.231436881 1.611649394 -6.771561766 
   vertex -5.460354837 3.065539598 -6.067024374 
  endloop
 endfacet
 facet normal -0.000001 2.159788 -4.456958
  outer loop
   vertex -5.231436881 1.611649394 -6.771561766 
   vertex -8.296977075 1.611649394 -6.771561289 
   vertex -5.460354837 3.065539598 -6.067024374 
  endloop
 endfacet
 facet normal 0.000000 1.837225 -3.791316
  outer loop
   vertex -5.460354837 3.065539598 -6.067024374 
   vertex -8.296977075 1.611649394 -6.771561289 
   vertex -8.068059 3.065539598 -6.067023898 
  endloop
 endfacet
 facet normal -2.619736 2.159787 -3.605755
  outer loop
   vertex -8.296977075 1.611649394 -6.771561289 
   vertex -10.777051 1.611649394 -4.969681645 
   vertex -8.068059 3.065539598 -6.067023898 
  endloop
 endfacet
 facet normal -2.228479 1.837225 -3.067238
  outer loop
   vertex -8.068059 3.065539598 -6.067023898 
   vertex -10.777051 1.611649394 -4.969681645 
   vertex -10.1777356 3.065539598 -4.534253741 
  endloop
 endfacet
 facet normal -4.238819 2.159786 -1.377275
  outer loop
   vertex -10.777051 1.611649394 -4.969681645 
   vertex -11.7243543 1.611649394 -2.054179993 
   vertex -10.1777356 3.065539598 -4.534253741 
  endloop
 endfacet
 facet normal -3.605755 1.837223 -1.171581
  outer loop
   vertex -10.1777356 3.065539598 -4.534253741 
   vertex -11.7243543 1.611649394 -2.054179993 
   vertex -10.98356012 3.065539598 -2.054180037 
  endloop
 endfacet
 facet normal -4.238819 2.159787 1.377275
  outer loop
   vertex -11.7243543 1.611649394 -2.054179993 
   vertex -10.77705053 1.611649394 0.8613217826 
   vertex -10.98356012 3.065539598 -2.054180037 
  endloop
 endfacet
 facet normal -3.605756 1.837225 1.171581
  outer loop
   vertex -10.98356012 3.065539598 -2.054180037 
   vertex -10.77705053 1.611649394 0.8613217826 
   vertex -10.17773512 3.065539598 0.4258938784 
  endloop
 endfacet
 facet normal -2.619734 2.159786 3.605756
  outer loop
   vertex -10.77705053 1.611649394 0.8613217826 
   vertex -8.296976122 1.611649394 2.663200712 
   vertex -10.17773512 3.065539598 0.4258938784 
  endloop
 endfacet
 facet normal -2.228478 1.837226 3.067239
  outer loop
   vertex -10.17773512 3.065539598 0.4258938784 
   vertex -8.296976122 1.611649394 2.663200712 
   vertex -8.068058165 3.065539598 1.95866332 
  endloop
 endfacet
 facet normal 0.000000 2.159787 4.456957
  outer loop
   vertex -8.296976122 1.611649394 2.663200712 
   vertex -5.231436404 1.611649394 2.663200235 
   vertex -8.068058165 3.065539598 1.95866332 
  endloop
 endfacet
 facet normal 0.000000 1.837224 3.791315
  outer loop
   vertex -8.068058165 3.065539598 1.95866332 
   vertex -5.231436404 1.611649394 2.663200235 
   vertex -5.46035448 3.065539598 1.95866332 
  endloop
 endfacet
 facet normal 2.619736 2.159786 3.605755
  outer loop
   vertex -5.231436404 1.611649394 2.663200235 
   vertex -2.751362833 1.611649394 0.8613210673 
   vertex -5.46035448 3.065539598 1.95866332 
  endloop
 endfacet
 facet normal 2.228479 1.837224 3.067238
  outer loop
   vertex -5.46035448 3.065539598 1.95866332 
   vertex -2.751362833 1.611649394 0.8613210673 
   vertex -3.350677999 3.065539598 0.4258931632 
  endloop
 endfacet
 facet normal 4.238818 2.159785 1.377275
  outer loop
   vertex -2.751362833 1.611649394 0.8613210673 
   vertex -1.804059061 1.611649394 -2.054180289 
   vertex -3.350677999 3.065539598 0.4258931632 
  endloop
 endfacet
 facet normal 3.605755 1.837225 1.171581
  outer loop
   vertex -3.350677999 3.065539598 0.4258931632 
   vertex -1.804059061 1.611649394 -2.054180289 
   vertex -2.544853243 3.065539598 -2.054180289 
  endloop
 endfacet
 facet normal 4.238820 2.159790 -1.377275
  outer loop
   vertex -1.804059061 1.611649394 -2.054180289 
   vertex -2.751362356 1.611649394 -4.969682599 
   vertex -2.544853243 3.065539598 -2.054180289 
  endloop
 endfacet
 facet normal 3.605756 1.837223 -1.171581
  outer loop
   vertex -2.544853243 3.065539598 -2.054180289 
   vertex -2.751362356 1.611649394 -4.969682599 
   vertex -3.350677761 3.065539598 -4.534254694 
  endloop
 endfacet
 facet normal 1.768530 2.861543 -2.434175
  outer loop
   vertex -3.350677761 3.065539598 -4.534254694 
   vertex -5.460354837 3.065539598 -6.067024374 
   vertex -4.284132513 4.219353199 -3.856059814 
  endloop
 endfacet
 facet normal 1.284913 2.079034 -1.768530
  outer loop
   vertex -4.284132513 4.219353199 -3.856059814 
   vertex -5.460354837 3.065539598 -6.067024374 
   vertex -5.816902789 4.219353199 -4.96968236 
  endloop
 endfacet
 facet normal -0.000000 2.861543 -3.008806
  outer loop
   vertex -5.460354837 3.065539598 -6.067024374 
   vertex -8.068059 3.065539598 -6.067023898 
   vertex -5.816902789 4.219353199 -4.96968236 
  endloop
 endfacet
 facet normal -0.000000 2.079033 -2.186024
  outer loop
   vertex -5.816902789 4.219353199 -4.96968236 
   vertex -8.068059 3.065539598 -6.067023898 
   vertex -7.71151075 4.219353199 -4.969681883 
  endloop
 endfacet
 facet normal -1.768531 2.861543 -2.434175
  outer loop
   vertex -8.068059 3.065539598 -6.067023898 
   vertex -10.1777356 3.065539598 -4.534253741 
   vertex -7.71151075 4.219353199 -4.969681883 
  endloop
 endfacet
 facet normal -1.284913 2.079033 -1.768530
  outer loop
   vertex -7.71151075 4.219353199 -4.969681883 
   vertex -10.1777356 3.065539598 -4.534253741 
   vertex -9.244280609 4.219353199 -3.856059218 
  endloop
 endfacet
 facet normal -2.861543 2.861544 -0.929771
  outer loop
   vertex -10.1777356 3.065539598 -4.534253741 
   vertex -10.98356012 3.065539598 -2.054180037 
   vertex -9.244280609 4.219353199 -3.856059218 
  endloop
 endfacet
 facet normal -2.079033 2.079031 -0.675519
  outer loop
   vertex -9.244280609 4.219353199 -3.856059218 
   vertex -10.98356012 3.065539598 -2.054180037 
   vertex -9.829746517 4.219353199 -2.054180106 
  endloop
 endfacet
 facet normal -2.861543 2.861544 0.929772
  outer loop
   vertex -10.98356012 3.065539598 -2.054180037 
   vertex -10.17773512 3.065539598 0.4258938784 
   vertex -9.829746517 4.219353199 -2.054180106 
  endloop
 endfacet
 facet normal -2.079032 2.079032 0.675519
  outer loop
   vertex -9.829746517 4.219353199 -2.054180106 
   vertex -10.17773512 3.065539598 0.4258938784 
   vertex -9.24428037 4.219353199 -0.252301002 
  endloop
 endfacet
 facet normal -1.768530 2.861543 2.434175
  outer loop
   vertex -10.17773512 3.065539598 0.4258938784 
   vertex -8.068058165 3.065539598 1.95866332 
   vertex -9.24428037 4.219353199 -0.252301002 
  endloop
 endfacet
 facet normal -1.284913 2.079033 1.768530
  outer loop
   vertex -9.24428037 4.219353199 -0.252301002 
   vertex -8.068058165 3.065539598 1.95866332 
   vertex -7.711510214 4.219353199 0.8613213057 
  endloop
 endfacet
 facet normal 0.000000 2.861543 3.008805
  outer loop
   vertex -8.068058165 3.065539598 1.95866332 
   vertex -5.46035448 3.065539598 1.95866332 
   vertex -7.711510214 4.219353199 0.8613213057 
  endloop
 endfacet
 facet normal 0.000000 2.079032 2.186024
  outer loop
   vertex -7.711510214 4.219353199 0.8613213057 
   vertex -5.46035448 3.065539598 1.95866332 
   vertex -5.816902491 4.219353199 0.8613213057 
  endloop
 endfacet
 facet normal 1.768531 2.861543 2.434174
  outer loop
   vertex -5.46035448 3.065539598 1.95866332 
   vertex -3.350677999 3.065539598 0.4258931632 
   vertex -5.816902491 4.219353199 0.8613213057 
  endloop
 endfacet
 facet normal 1.284913 2.079032 1.768530
  outer loop
   vertex -5.816902491 4.219353199 0.8613213057 
   vertex -3.350677999 3.065539598 0.4258931632 
   vertex -4.284132751 4.219353199 -0.2523013597 
  endloop
 endfacet
 facet normal 2.861543 2.861542 0.929772
  outer loop
   vertex -3.350677999 3.065539598 0.4258931632 
   vertex -2.544853243 3.065539598 -2.054180289 
   vertex -4.284132751 4.219353199 -0.2523013597 
  endloop
 endfacet
 facet normal 2.079032 2.079032 0.675519
  outer loop
   vertex -4.284132751 4.219353199 -0.2523013597 
   vertex -2.544853243 3.065539598 -2.054180289 
   vertex -3.698666843 4.219353199 -2.054180289 
  endloop
 endfacet
 facet normal 2.861544 2.861544 -0.929771
  outer loop
   vertex -2.544853243 3.065539598 -2.054180289 
   vertex -3.350677761 3.065539598 -4.534254694 
   vertex -3.698666843 4.219353199 -2.054180289 
  endloop
 endfacet
 facet normal 2.079033 2.079033 -0.675518
  outer loop
   vertex -3.698666843 4.219353199 -2.054180289 
   vertex -3.350677761 3.065539598 -4.534254694 
   vertex -4.284132513 4.219353199 -3.856059814 
  endloop
 endfacet
 facet normal 0.824965 2.619735 -1.135468
  outer loop
   vertex -4.284132513 4.219353199 -3.856059814 
   vertex -5.816902789 4.219353199 -4.96968236 
   vertex -5.46035448 4.960147381 -3.001484359 
  endloop
 endfacet
 facet normal 0.433710 1.377277 -0.596951
  outer loop
   vertex -5.46035448 4.960147381 -3.001484359 
   vertex -5.816902789 4.219353199 -4.96968236 
   vertex -6.266179445 4.960147381 -3.586950446 
  endloop
 endfacet
 facet normal -0.000000 2.619735 -1.403514
  outer loop
   vertex -5.816902789 4.219353199 -4.96968236 
   vertex -7.71151075 4.219353199 -4.969681883 
   vertex -6.266179445 4.960147381 -3.586950446 
  endloop
 endfacet
 facet normal 0.000000 1.377276 -0.737871
  outer loop
   vertex -6.266179445 4.960147381 -3.586950446 
   vertex -7.71151075 4.219353199 -4.969681883 
   vertex -7.262233796 4.960147381 -3.586950207 
  endloop
 endfacet
 facet normal -0.824965 2.619734 -1.135468
  outer loop
   vertex -7.71151075 4.219353199 -4.969681883 
   vertex -9.244280609 4.219353199 -3.856059218 
   vertex -7.262233796 4.960147381 -3.586950207 
  endloop
 endfacet
 facet normal -0.433710 1.377276 -0.596951
  outer loop
   vertex -7.262233796 4.960147381 -3.586950207 
   vertex -9.244280609 4.219353199 -3.856059218 
   vertex -8.068058642 4.960147381 -3.00148412 
  endloop
 endfacet
 facet normal -1.334822 2.619735 -0.433710
  outer loop
   vertex -9.244280609 4.219353199 -3.856059218 
   vertex -9.829746517 4.219353199 -2.054180106 
   vertex -8.068058642 4.960147381 -3.00148412 
  endloop
 endfacet
 facet normal -0.701757 1.377276 -0.228014
  outer loop
   vertex -8.068058642 4.960147381 -3.00148412 
   vertex -9.829746517 4.219353199 -2.054180106 
   vertex -8.375856193 4.960147381 -2.054180193 
  endloop
 endfacet
 facet normal -1.334822 2.619735 0.433710
  outer loop
   vertex -9.829746517 4.219353199 -2.054180106 
   vertex -9.24428037 4.219353199 -0.252301002 
   vertex -8.375856193 4.960147381 -2.054180193 
  endloop
 endfacet
 facet normal -0.701757 1.377275 0.228014
  outer loop
   vertex -8.375856193 4.960147381 -2.054180193 
   vertex -9.24428037 4.219353199 -0.252301002 
   vertex -8.068058404 4.960147381 -1.106876278 
  endloop
 endfacet
 facet normal -0.824965 2.619735 1.135468
  outer loop
   vertex -9.24428037 4.219353199 -0.252301002 
   vertex -7.711510214 4.219353199 0.8613213057 
   vertex -8.068058404 4.960147381 -1.106876278 
  endloop
 endfacet
 facet normal -0.433710 1.377276 0.596950
  outer loop
   vertex -8.068058404 4.960147381 -1.106876278 
   vertex -7.711510214 4.219353199 0.8613213057 
   vertex -7.262233498 4.960147381 -0.5214103704 
  endloop
 endfacet
 facet normal 0.000000 2.619734 1.403514
  outer loop
   vertex -7.711510214 4.219353199 0.8613213057 
   vertex -5.816902491 4.219353199 0.8613213057 
   vertex -7.262233498 4.960147381 -0.5214103704 
  endloop
 endfacet
 facet normal 0.000000 1.377276 0.737871
  outer loop
   vertex -7.262233498 4.960147381 -0.5214103704 
   vertex -5.816902491 4.219353199 0.8613213057 
   vertex -6.266179296 4.960147381 -0.5214104896 
  endloop
 endfacet
 facet normal 0.824965 2.619735 1.135468
  outer loop
   vertex -5.816902491 4.219353199 0.8613213057 
   vertex -4.284132751 4.219353199 -0.2523013597 
   vertex -6.266179296 4.960147381 -0.5214104896 
  endloop
 endfacet
 facet normal 0.433710 1.377276 0.596949
  outer loop
   vertex -6.266179296 4.960147381 -0.5214104896 
   vertex -4.284132751 4.219353199 -0.2523013597 
   vertex -5.460354599 4.960147381 -1.106876457 
  endloop
 endfacet
 facet normal 1.334821 2.619735 0.433710
  outer loop
   vertex -4.284132751 4.219353199 -0.2523013597 
   vertex -3.698666843 4.219353199 -2.054180289 
   vertex -5.460354599 4.960147381 -1.106876457 
  endloop
 endfacet
 facet normal 0.701757 1.377275 0.228015
  outer loop
   vertex -5.460354599 4.960147381 -1.106876457 
   vertex -3.698666843 4.219353199 -2.054180289 
   vertex -5.152556928 4.960147381 -2.054180289 
  endloop
 endfacet
 facet normal 1.334822 2.619734 -0.433709
  outer loop
   vertex -3.698666843 4.219353199 -2.054180289 
   vertex -4.284132513 4.219353199 -3.856059814 
   vertex -5.152556928 4.960147381 -2.054180289 
  endloop
 endfacet
 facet normal 0.701758 1.377276 -0.228014
  outer loop
   vertex -5.152556928 4.960147381 -2.054180289 
   vertex -4.284132513 4.219353199 -3.856059814 
   vertex -5.46035448 4.960147381 -3.001484359 
  endloop
 endfacet
 facet normal 0.149446 -1.526722 -0.205694
  outer loop
   vertex -6.266179445 -4.960147381 -3.586950446 
   vertex -5.46035448 -4.960147381 -3.001484359 
   vertex -6.764206442 -5.215407372 -2.054180289 
  endloop
 endfacet
 facet normal -0.000000 -1.526722 -0.254252
  outer loop
   vertex -7.262233796 -4.960147381 -3.586950207 
   vertex -6.266179445 -4.960147381 -3.586950446 
   vertex -6.764206442 -5.215407372 -2.054180289 
  endloop
 endfacet
 facet normal -0.149446 -1.526722 -0.205694
  outer loop
   vertex -8.068058642 -4.960147381 -3.00148412 
   vertex -7.262233796 -4.960147381 -3.586950207 
   vertex -6.764206442 -5.215407372 -2.054180289 
  endloop
 endfacet
 facet normal -0.241809 -1.526722 -0.078568
  outer loop
   vertex -8.375856193 -4.960147381 -2.054180193 
   vertex -8.068058642 -4.960147381 -3.00148412 
   vertex -6.764206442 -5.215407372 -2.054180289 
  endloop
 endfacet
 facet normal -0.241809 -1.526722 0.078568
  outer loop
   vertex -8.068058404 -4.960147381 -1.106876278 
   vertex -8.375856193 -4.960147381 -2.054180193 
   vertex -6.764206442 -5.215407372 -2.054180289 
  endloop
 endfacet
 facet normal -0.149446 -1.526722 0.205694
  outer loop
   vertex -7.262233498 -4.960147381 -0.5214103704 
   vertex -8.068058404 -4.960147381 -1.106876278 
   vertex -6.764206442 -5.215407372 -2.054180289 
  endloop
 endfacet
 facet normal 0.000000 -1.526722 0.254252
  outer loop
   vertex -6.266179296 -4.960147381 -0.5214104896 
   vertex -7.262233498 -4.960147381 -0.5214103704 
   vertex -6.764206442 -5.215407372 -2.054180289 
  endloop
 endfacet
 facet normal 0.149446 -1.526722 0.205694
  outer loop
   vertex -5.460354599 -4.960147381 -1.106876457 
   vertex -6.266179296 -4.960147381 -0.5214104896 
   vertex -6.764206442 -5.215407372 -2.054180289 
  endloop
 endfacet
 facet normal 0.241809 -1.526722 0.078569
  outer loop
   vertex -5.152556928 -4.960147381 -2.054180289 
   vertex -5.460354599 -4.960147381 -1.106876457 
   vertex -6.764206442 -5.215407372 -2.054180289 
  endloop
 endfacet
 facet normal 0.241809 -1.526722 -0.078569
  outer loop
   vertex -5.46035448 -4.960147381 -3.001484359 
   vertex -5.152556928 -4.960147381 -2.054180289 
   vertex -6.764206442 -5.215407372 -2.054180289 
  endloop
 endfacet
 facet normal 0.149446 1.526722 -0.205694
  outer loop
   vertex -5.46035448 4.960147381 -3.001484359 
   vertex -6.266179445 4.960147381 -3.586950446 
   vertex -6.764206442 5.215407372 -2.054180289 
  endloop
 endfacet
 facet normal -0.000000 1.526722 -0.254252
  outer loop
   vertex -6.266179445 4.960147381 -3.586950446 
   vertex -7.262233796 4.960147381 -3.586950207 
   vertex -6.764206442 5.215407372 -2.054180289 
  endloop
 endfacet
 facet normal -0.149446 1.526722 -0.205694
  outer loop
   vertex -7.262233796 4.960147381 -3.586950207 
   vertex -8.068058642 4.960147381 -3.00148412 
   vertex -6.764206442 5.215407372 -2.054180289 
  endloop
 endfacet
 facet normal -0.241809 1.526722 -0.078568
  outer loop
   vertex -8.068058642 4.960147381 -3.00148412 
   vertex -8.375856193 4.960147381 -2.054180193 
   vertex -6.764206442 5.215407372 -2.054180289 
  endloop
 endfacet
 facet normal -0.241809 1.526722 0.078568
  outer loop
   vertex -8.375856193 4.960147381 -2.054180193 
   vertex -8.068058404 4.960147381 -1.106876278 
   vertex -6.764206442 5.215407372 -2.054180289 
  endloop
 endfacet
 facet normal -0.149446 1.526722 0.205694
  outer loop
   vertex -8.068058404 4.960147381 -1.106876278 
   vertex -7.262233498 4.960147381 -0.5214103704 
   vertex -6.764206442 5.215407372 -2.054180289 
  endloop
 endfacet
 facet normal 0.000000 1.526722 0.254252
  outer loop
   vertex -7.262233498 4.960147381 -0.5214103704 
   vertex -6.266179296 4.960147381 -0.5214104896 
   vertex -6.764206442 5.215407372 -2.054180289 
  endloop
 endfacet
 facet normal 0.149446 1.526722 0.205694
  outer loop
   vertex -6.266179296 4.960147381 -0.5214104896 
   vertex -5.460354599 4.960147381 -1.106876457 
   vertex -6.764206442 5.215407372 -2.054180289 
  endloop
 endfacet
 facet normal 0.241809 1.526722 0.078568
  outer loop
   vertex -5.460354599 4.960147381 -1.106876457 
   vertex -5.152556928 4.960147381 -2.054180289 
   vertex -6.764206442 5.215407372 -2.054180289 
  endloop
 endfacet
 facet normal 0.241809 1.526722 -0.078569
  outer loop
   vertex -5.152556928 4.960147381 -2.054180289 
   vertex -5.46035448 4.960147381 -3.001484359 
   vertex -6.764206442 5.215407372 -2.054180289 
  endloop
 endfacet
endsolid
